<svg width="216" height="328" viewBox="0 0 216 328" fill="none" xmlns="http://www.w3.org/2000/svg">
<path d="M22.4238 72.1906L86.2287 8.38562C74.9011 14.8586 64.3825 22.603 54.8657 31.3878L45.426 40.8275C36.6412 50.3829 28.8968 60.863 22.4238 72.1906Z" fill="#FF477E"/>
<path d="M3.39062 122.895L136.934 -10.6478C133.235 -9.91577 129.613 -9.02965 125.992 -8.06641L5.9721 111.953C4.97033 115.575 4.12269 119.235 3.39062 122.895Z" fill="#FF477E"/>
<path d="M0 156.84C0 157.187 0 157.572 0 157.919L171.919 -14C171.572 -14 171.187 -14 170.84 -14C168.374 -14 165.87 -13.9229 163.442 -13.8458L0.154092 149.442C0.0770332 151.908 0 154.374 0 156.84Z" fill="#FF477E"/>
<path d="M2.65883 186.97L200.97 -11.3415C198.582 -11.7653 196.154 -12.1505 193.765 -12.4587L1.5415 179.765C1.84974 182.154 2.23501 184.581 2.65883 186.97Z" fill="#FF477E"/>
<path d="M9.13148 212.13L226.13 -4.86846C224.049 -5.60052 221.93 -6.2556 219.811 -6.87207L7.12793 205.811C7.7444 207.93 8.43795 210.049 9.13148 212.13Z" fill="#FF477E"/>
<path d="M18.5711 234.361L248.4 4.53268C246.55 3.56945 244.662 2.6833 242.774 1.79712L15.8354 228.736C16.7216 230.663 17.6078 232.512 18.5711 234.361Z" fill="#FF477E"/>
<path d="M30.4385 254.166L268.204 16.3999C266.547 15.244 264.891 14.1267 263.195 13.0479L27.0864 249.157C28.1653 250.891 29.2826 252.548 30.4385 254.166Z" fill="#FF477E"/>
<path d="M44.4632 271.812L285.812 30.4632C284.348 29.1532 282.884 27.8431 281.381 26.5717L40.5718 267.381C41.8433 268.884 43.1147 270.348 44.4632 271.812Z" fill="#FF477E"/>
<path d="M60.5685 287.34L301.34 46.5684C300.068 45.0658 298.758 43.5631 297.448 42.099L56.0991 283.448C57.6018 284.797 59.0659 286.068 60.5685 287.34Z" fill="#FF477E"/>
<path d="M78.793 300.825L314.825 64.793C313.746 63.0977 312.629 61.4409 311.473 59.7842L73.7842 297.473C75.4409 298.59 77.0977 299.708 78.793 300.825Z" fill="#FF477E"/>
<path d="M99.2522 311.998L325.999 85.2521C325.112 83.3642 324.226 81.4762 323.263 79.6268L93.5884 309.301C95.4763 310.226 97.3643 311.151 99.2522 311.998Z" fill="#FF477E"/>
<path d="M122.254 320.668L334.706 108.216C334.089 106.097 333.396 103.978 332.702 101.897L115.935 318.664C117.977 319.396 120.096 320.051 122.254 320.668Z" fill="#FF477E"/>
<path d="M148.339 326.216L340.216 134.339C339.908 131.911 339.522 129.484 339.098 127.095L141.095 325.098C143.523 325.561 145.911 325.907 148.339 326.216Z" fill="#FF477E"/>
<path d="M170.84 327.719C173.498 327.719 176.118 327.642 178.7 327.526L341.487 164.739C341.603 162.119 341.68 159.499 341.68 156.879C341.68 156.648 341.68 156.455 341.68 156.224L170.185 327.719C170.416 327.719 170.647 327.719 170.84 327.719Z" fill="#FF477E"/>
<path d="M216.344 321.592L335.593 202.343C336.594 198.722 337.481 195.061 338.251 191.362L205.363 324.251C209.062 323.48 212.722 322.556 216.344 321.592Z" fill="#FF477E"/>
</svg>
