<svg width="62" height="54" viewBox="0 0 62 54" fill="none" xmlns="http://www.w3.org/2000/svg">
<path d="M57.6432 24.169C55.2328 21.3909 52.0084 19.3272 48.3631 18.2292L49.715 16.9676C50.1284 16.5844 50.4185 16.1008 50.5524 15.5716C50.6862 15.0424 50.6585 14.4888 50.4724 13.9736C50.2694 13.4056 49.9143 12.8954 49.4406 12.4915C48.967 12.0876 48.3906 11.8034 47.7661 11.6658C47.1417 11.5283 46.4899 11.5419 45.8727 11.7055C45.2555 11.8691 44.6933 12.1771 44.2396 12.6004L43.7035 13.1007L43.1675 12.6004C42.7138 12.177 42.1515 11.8688 41.5343 11.7051C40.917 11.5415 40.2651 11.5278 39.6406 11.6654C39.016 11.803 38.4395 12.0872 37.9658 12.4912C37.4921 12.8952 37.137 13.4055 36.934 13.9736C36.7479 14.4888 36.7202 15.0424 36.854 15.5716C36.9879 16.1008 37.278 16.5844 37.6913 16.9676L38.4922 17.7149C37.9601 17.8143 37.433 17.9338 36.9143 18.0735C36.8762 18.0839 36.8387 18.0963 36.8022 18.1107C35.5044 15.9287 33.743 14.017 31.6257 12.4925C29.5085 10.9681 27.08 9.86303 24.4891 9.24509L27.6824 5.41374C27.8216 5.24673 27.8981 5.04162 27.9001 4.83003C27.9021 4.61844 27.8294 4.41211 27.6933 4.24286L24.5933 0.385714C24.4971 0.265954 24.3723 0.16875 24.2288 0.101802C24.0853 0.0348541 23.9271 0 23.7667 0H15.5C15.3396 0 15.1814 0.0348541 15.0379 0.101802C14.8944 0.16875 14.7696 0.265954 14.6733 0.385714L11.5733 4.24286C11.4373 4.41209 11.3647 4.61837 11.3667 4.82991C11.3687 5.04145 11.4451 5.24651 11.5843 5.4135L14.7777 9.24509C10.5513 10.2527 6.80465 12.5448 4.12885 15.7597C1.45305 18.9746 0.000374755 22.9293 0 27C0 37.1025 8.80749 45.3214 19.6333 45.3214C21.5174 45.3224 23.3916 45.0695 25.1982 44.5706C26.8933 47.4326 29.3807 49.8175 32.4007 51.4762C35.4206 53.1348 38.8624 54.0065 42.3667 54C53.1925 54 62 45.781 62 35.6786C61.9965 31.4907 60.4593 27.4297 57.6432 24.169ZM38.894 14.5835C38.9855 14.3272 39.1457 14.0971 39.3593 13.9149C39.573 13.7326 39.833 13.6044 40.1147 13.5424C40.3964 13.4803 40.6904 13.4865 40.9688 13.5603C41.2472 13.6341 41.5008 13.7731 41.7055 13.9641L42.9722 15.1462C43.166 15.327 43.4288 15.4285 43.7028 15.4285C43.9769 15.4285 44.2397 15.327 44.4335 15.1462L45.7002 13.9642C45.9048 13.7732 46.1584 13.6341 46.4369 13.5603C46.7153 13.4865 47.0093 13.4803 47.291 13.5423C47.5727 13.6044 47.8328 13.7326 48.0464 13.9148C48.2601 14.0971 48.4203 14.3272 48.5118 14.5835C48.5752 14.7591 48.5846 14.9478 48.5389 15.1282C48.4933 15.3085 48.3944 15.4734 48.2534 15.6039L43.7026 19.8507L39.1518 15.6039C39.011 15.4733 38.9122 15.3085 38.8666 15.1281C38.8211 14.9477 38.8306 14.7591 38.894 14.5835ZM39.2667 27C39.2663 25.846 39.149 24.6946 38.9164 23.5612C41.3329 22.962 43.8806 23.0039 46.273 23.6824C48.6653 24.3608 50.8073 25.6488 52.4579 27.4014C54.1085 29.1541 55.2022 31.3018 55.616 33.6029C56.0298 35.904 55.7471 38.2673 54.8 40.4267C53.8528 42.586 52.2786 44.4559 50.2546 45.8259C48.2306 47.1959 45.837 48.0115 43.3433 48.1811C40.8495 48.3507 38.3545 47.8676 36.139 46.7859C33.9235 45.7043 32.0755 44.0672 30.8028 42.0588C33.4132 40.3744 35.547 38.1244 37.0212 35.5016C38.4953 32.8789 39.2658 29.9616 39.2667 27ZM40.2964 19.3991L42.2437 21.2163C40.9538 21.2248 39.67 21.3833 38.422 21.688C38.2215 21.0697 37.986 20.4618 37.7167 19.8668C38.5628 19.6509 39.4252 19.4946 40.2964 19.3991ZM33.0667 27C33.0654 28.688 32.6994 30.3585 31.9903 31.9114C31.2813 33.4644 30.2439 34.868 28.9402 36.0381C28.9366 35.9176 28.9333 35.7984 28.9333 35.6786C28.9287 33.9893 29.2922 32.3168 30.0017 30.7627C30.7112 29.2087 31.752 27.8054 33.0607 26.6384C33.0643 26.7589 33.0667 26.8795 33.0667 27ZM25.055 38.4733C24.8854 37.5501 24.8001 36.6152 24.8 35.6786C24.7978 33.0768 25.4603 30.5121 26.7325 28.197C28.0046 25.8819 29.8498 23.8831 32.1151 22.3664C32.3871 23.0026 32.6023 23.6588 32.7585 24.3282C30.9174 25.6785 29.43 27.4024 28.4092 29.369C27.3883 31.3356 26.8608 33.4934 26.8667 35.6786C26.8675 36.2838 26.9085 36.8884 26.9895 37.4889C26.3747 37.8661 25.7277 38.1953 25.055 38.4733ZM22.7333 35.6786C22.7336 36.8328 22.8499 37.9845 23.0807 39.1185C20.6642 39.7183 18.1163 39.6768 15.7237 38.9988C13.3311 38.3208 11.1888 37.0332 9.53765 35.2809C7.88654 33.5286 6.79221 31.381 6.37779 29.0799C5.96338 26.7788 6.24531 24.4154 7.19189 22.2557C8.13846 20.0959 9.7121 18.2256 11.7358 16.855C13.7594 15.4844 16.1528 14.668 18.6466 14.4977C21.1404 14.3273 23.6357 14.8097 25.8516 15.8907C28.0676 16.9717 29.9164 18.6082 31.1899 20.6163C28.5789 22.3005 26.4453 24.5512 24.9723 27.1748C23.4992 29.7985 22.7309 32.7166 22.7333 35.6786ZM15.7886 5.78571L16.7454 8.46438L14.5128 5.78571H15.7886ZM24.7539 5.78571L22.5212 8.46438L23.4781 5.78571H24.7539ZM21.2996 5.78571L19.6333 10.4504L17.9671 5.78571H21.2996ZM18.6 3.85714L19.6333 2.57139L20.6667 3.85714H18.6ZM24.8 3.85714H23.25L21.7 1.92857H23.25L24.8 3.85714ZM16.0167 1.92857H17.5667L16.0167 3.85714H14.4667L16.0167 1.92857ZM2.06667 27C2.06693 23.2118 3.47273 19.5406 6.04519 16.6102C8.61765 13.6798 12.1981 11.6709 16.178 10.925L17.6219 12.6573C13.7188 13.134 10.1563 14.9786 7.65732 17.8168C5.15835 20.6551 3.91018 24.2742 4.16613 27.9398C4.42208 31.6054 6.16297 35.0428 9.03549 37.5544C11.908 40.066 15.6969 41.4636 19.6333 41.4636C23.5697 41.4636 27.3587 40.066 30.2312 37.5544C33.1037 35.0428 34.8446 31.6054 35.1005 27.9398C35.3565 24.2742 34.1083 20.6551 31.6093 17.8168C29.1104 14.9786 25.5478 13.134 21.6447 12.6573L23.0887 10.925C27.0686 11.6709 30.649 13.6798 33.2215 16.6102C35.7939 19.5406 37.1997 23.2118 37.2 27C37.2 36.0391 29.3197 43.3928 19.6333 43.3928C9.947 43.3928 2.06667 36.0391 2.06667 27ZM42.3667 52.0714C39.29 52.077 36.266 51.3259 33.5994 49.8939C30.9327 48.4619 28.7174 46.3994 27.1767 43.9143C27.8152 43.6654 28.4391 43.3851 29.0458 43.0745C30.3765 45.1614 32.2489 46.9021 34.4902 48.136C36.7315 49.3699 39.2697 50.0574 41.8706 50.135C44.4716 50.2126 47.0516 49.6779 49.3729 48.5801C51.6941 47.4824 53.6818 45.8569 55.1527 43.8536C56.6235 41.8503 57.5302 39.5337 57.7891 37.1173C58.0481 34.701 57.6509 32.2627 56.6342 30.0272C55.6176 27.7918 54.0141 25.8312 51.9718 24.3263C49.9295 22.8213 47.514 21.8205 44.9481 21.4159L46.6937 19.7871C50.4793 20.6861 53.8361 22.7365 56.2337 25.6143C58.6313 28.4921 59.933 32.0333 59.9333 35.6786C59.9333 44.7177 52.053 52.0714 42.3667 52.0714Z" fill="#053C5E"/>
</svg>
